<?xml version="1.0" encoding="UTF-8"?> <svg xmlns="http://www.w3.org/2000/svg" width="123" height="28" viewBox="0 0 123 28" fill="none"><path d="M58.2945 0.103505L47.2259 16.7667V27.427H40.3739V16.4562L29.4106 0H36.6843L43.958 12.1093L51.2316 0H58.2945V0.103505Z" fill="#00C3C4"></path><path d="M90.7624 27.3237H83.3833L70.9443 9.62548V27.3237H64.0923V0.103638H71.3659L83.9104 17.9053V0.103638H90.7624V27.3237V27.3237Z" fill="#00C3C4"></path><path d="M122.809 27.3237H100.883V0.103638H122.915V5.48555H107.84V10.8675H118.487V15.9389H107.84V22.0453H122.915V27.3237H122.809Z" fill="#00C3C4"></path><path d="M21.2939 13.3513C23.9293 12.4198 25.7213 10.4533 25.7213 7.55538C25.7213 1.75947 20.8722 0 15.8123 0H0V5.38192H2.00289H10.0145H14.969C17.0773 5.38192 18.9748 5.7959 18.9748 8.27986C18.9748 10.5568 16.9719 11.2813 15.0744 11.2813H10.1199H6.95742H0.105422V27.427H16.4448C21.5047 27.427 26.3538 25.3571 26.3538 19.7682C26.3538 16.4562 24.351 14.3863 21.2939 13.3513ZM15.6015 22.0451H6.95742V16.1457H15.4961C17.7098 16.1457 19.5018 16.7667 19.5018 19.2507C19.5018 21.5277 17.499 22.0451 15.6015 22.0451Z" fill="#00C3C4"></path></svg> 