<?xml version="1.0" encoding="UTF-8"?> <svg xmlns="http://www.w3.org/2000/svg" width="156" height="35" viewBox="0 0 156 35" fill="none"><path d="M74.4018 0.130699L60.4251 21.1719V34.6331H51.7729V20.7799L37.9292 0H47.1139L56.2986 15.2908L65.4833 0H74.4018V0.130699Z" fill="white"></path><path d="M115.4 34.5028H106.083L90.3754 12.1547V34.5028H81.7231V0.131104H90.9078L106.748 22.6099V0.131104H115.4V34.5028V34.5028Z" fill="white"></path><path d="M155.867 34.5028H128.18V0.131104H156V6.92703H136.965V13.723H150.409V20.1268H136.965V27.8376H156V34.5028H155.867Z" fill="white"></path><path d="M27.6801 16.8591C31.0079 15.6829 33.2708 13.1998 33.2708 9.54044C33.2708 2.22175 27.1476 0 20.7583 0H0.791504V6.79593H3.32062H13.4371H19.6934C22.3556 6.79593 24.7516 7.31869 24.7516 10.4553C24.7516 13.3305 22.2225 14.2453 19.8265 14.2453H13.5702H9.57689H0.924624V34.6331H21.5569C27.9463 34.6331 34.0694 32.0193 34.0694 24.962C34.0694 20.7799 31.5403 18.166 27.6801 16.8591ZM20.4921 27.8372H9.57689V20.3878H20.3589C23.1543 20.3878 25.4172 21.1719 25.4172 24.3085C25.4172 27.1837 22.8881 27.8372 20.4921 27.8372Z" fill="white"></path></svg> 